<?xml version="1.0" encoding="UTF-8"?>
<svg width="789px" height="316px" viewBox="0 0 789 316" version="1.1" xmlns="http://www.w3.org/2000/svg" xmlns:xlink="http://www.w3.org/1999/xlink">
    <title>Group 41</title>
    <defs>
        <polygon id="path-1" points="0.5992 0.889 221.6562 0.889 221.6562 308.8025 0.5992 308.8025"></polygon>
    </defs>
    <g id="Page-1" stroke="none" stroke-width="1" fill="none" fill-rule="evenodd">
        <g id="Group-41">
            <polygon id="Fill-1" fill="#FDFDFD" points="259.736 307.785 316.757 307.785 316.757 0.999 259.736 0.999"></polygon>
            <g id="Group-40" transform="translate(0.000000, 0.111000)">
                <path d="M420.4512,0.889 L366.5232,0.889 L366.5232,77.24 L345.1992,77.24 L345.1992,116.28 L366.9952,116.28 L366.9952,273.061 C366.9952,316.173 411.3632,313.349 443.0282,309.747 L443.0282,267.727 C436.4512,268.668 421.5462,269.766 420.4512,260.049 L420.4512,116.28 L443.0282,116.28 L443.0282,77.24 L420.4512,77.24 L420.4512,0.889 Z" id="Fill-2" fill="#FDFDFD"></path>
                <g id="Group-6">
                    <mask id="mask-2" fill="white">
                        <use xlink:href="#path-1"></use>
                    </mask>
                    <g id="Clip-5"></g>
                    <path d="M86.5152,185.5755 C95.7612,143.8735 106.2652,103.2665 111.6032,60.7775 L112.3842,60.7775 C117.7152,103.1125 127.2762,143.7195 135.7412,185.5755 L86.5152,185.5755 Z M74.1282,0.8885 L0.5992,308.8025 L62.2132,308.8025 L77.4192,230.8795 L144.8362,230.8795 L160.0432,308.8025 L221.6562,308.8025 L151.7352,0.8885 L74.1282,0.8885 Z" id="Fill-4" fill="#FDFDFD" mask="url(#mask-2)"></path>
                </g>
                <path d="M637.7667,141.3494 C632.5927,145.8764 625.2027,148.1354 615.5927,148.1354 L598.9627,148.1354 L598.9627,91.0694 L617.8107,91.0694 C636.2877,91.0694 645.5277,100.2124 645.5277,118.4954 C645.5277,129.2054 642.9407,136.8264 637.7667,141.3494 M685.9947,246.4754 C685.2547,240.9354 684.7007,232.9004 684.3307,222.3744 C684.1467,217.0194 683.9617,212.1744 683.7767,207.8324 C683.5917,203.4934 683.3187,199.4794 682.9487,195.7804 C681.8397,184.7014 678.9727,176.6664 674.3527,171.6804 C669.7337,166.6954 662.4387,163.4644 652.4597,161.9864 L652.4597,161.4324 C663.7247,159.0334 672.0397,153.6304 677.4057,145.2264 C682.7637,136.8264 685.4397,125.9754 685.4397,112.6784 C685.4397,95.5004 680.8207,82.7164 671.5807,74.3084 C662.3427,65.9084 649.4087,61.7064 632.7777,61.7064 L559.0507,61.7064 L559.0507,259.4954 L598.9627,259.4954 L598.9627,175.8344 L620.3087,175.8344 C628.6237,175.8344 634.5367,178.0524 638.0467,182.4834 C641.5507,186.9184 643.4957,193.0124 643.8647,200.7664 L644.9727,238.7174 C645.1587,242.5984 645.5277,246.3374 646.0817,249.9384 C646.6357,253.5374 647.9297,256.7234 649.9617,259.4954 L693.2007,259.4954 L693.2007,257.8314 C689.5047,255.8024 687.1027,252.0154 685.9947,246.4754" id="Fill-7" fill="#FDFDFD"></path>
                <path d="M632.2618,298.9236 C554.3408,298.9236 491.0018,235.7456 491.0018,157.6706 C491.0018,79.7476 554.3408,16.4136 632.2618,16.4136 C710.3348,16.4136 773.5158,79.7476 773.5158,157.6706 C773.5158,235.7456 710.3348,298.9236 632.2618,298.9236 M788.7218,157.6706 C788.7218,71.2826 718.6428,1.2036 632.2618,1.2036 C545.8748,1.2036 475.7958,71.2826 475.7958,157.6706 C475.7958,244.0506 545.8748,314.1366 632.2618,314.1366 C718.6428,314.1366 788.7218,244.0506 788.7218,157.6706" id="Fill-9" fill="#FDFDFD"></path>
                <path d="M723.9747,200.6248 C716.2957,200.6248 710.0197,206.8998 710.0197,214.4208 C710.0197,222.1038 716.2957,228.2188 723.9747,228.2188 C731.5027,228.2188 737.7717,222.1038 737.7717,214.4208 C737.7717,206.8998 731.5027,200.6248 723.9747,200.6248" id="Fill-11" fill="#FDFDFD"></path>
            </g>
        </g>
    </g>
</svg>